# xmcd
#
# Track frame offsets:
#	150
#	26926
#	42341
#	66655
#	79911
#	97258
#	112174
#	130290
#	141045
#	168937
#	173531
#	195416
#	201025
#
# Disc length: 3109 seconds
#
# Revision: 0
# Processed by: cddbd v1.5.1PL0 Copyright (c) Steve Scherf et al.
# Submitted via: dBpowerAMP V4.0
#
DISCID=bf0c230d
DTITLE=聖經-舊約 - Disc 54
DYEAR=1900
DGENRE=
TTITLE0=耶利米書第36章
TTITLE1=耶利米書第37章
TTITLE2=耶利米書第38章
TTITLE3=耶利米書第39章
TTITLE4=耶利米書第40章
TTITLE5=耶利米書第41章
TTITLE6=耶利米書第42章
TTITLE7=耶利米書第43章
TTITLE8=耶利米書第44章
TTITLE9=耶利米書第45章
TTITLE10=耶利米書第46章
TTITLE11=耶利米書第47章
TTITLE12=耶利米書第48章
EXTD=
EXTT0=
EXTT1=
EXTT2=
EXTT3=
EXTT4=
EXTT5=
EXTT6=
EXTT7=
EXTT8=
EXTT9=
EXTT10=
EXTT11=
EXTT12=
PLAYORDER=
